<svg width="512" height="512" viewBox="0 0 512 512" fill="none" xmlns="http://www.w3.org/2000/svg">
<g clip-path="url(#clip0_249_2)">
<rect width="512" height="512" fill="#070047"/>
<path d="M37.2992 276.766L176.541 131.887H224.834V276.766H276.174V319.117H224.834V370H176.541V319.117H36.9945L37.2992 276.766ZM176.541 276.766V192.977L95.1898 276.766H176.541ZM297.838 314.852C310.025 322.164 323.431 327.547 338.056 331C352.681 334.453 367.662 336.18 382.998 336.18C393.357 336.18 401.99 335.469 408.896 334.047C415.802 332.625 421.338 330.797 425.502 328.562C429.666 326.328 432.611 323.789 434.338 320.945C436.064 318.102 436.927 315.207 436.927 312.262C436.927 307.996 435.048 304.34 431.291 301.293C427.634 298.246 421.541 296.723 413.009 296.723C409.048 296.723 404.783 296.977 400.213 297.484C395.642 297.992 390.818 298.551 385.74 299.16C380.763 299.668 375.533 300.176 370.048 300.684C364.666 301.191 359.181 301.445 353.595 301.445C341.408 301.445 330.998 300.125 322.365 297.484C313.834 294.844 306.877 291.238 301.494 286.668C296.111 282.098 292.201 276.715 289.763 270.52C287.326 264.223 286.107 257.469 286.107 250.258C286.107 241.117 288.24 232.688 292.505 224.969C296.771 217.25 302.865 210.598 310.787 205.012C318.709 199.324 328.255 194.906 339.427 191.758C350.701 188.609 363.244 187.035 377.056 187.035C384.267 187.035 391.783 187.492 399.603 188.406C407.525 189.219 415.295 190.336 422.912 191.758C430.529 193.18 437.841 194.855 444.849 196.785C451.857 198.613 458.052 200.594 463.435 202.727L449.267 237.766C437.791 233.5 426.314 230.148 414.838 227.711C403.463 225.172 391.732 223.902 379.646 223.902C371.216 223.902 364.056 224.562 358.166 225.883C352.377 227.102 347.654 228.777 343.998 230.91C340.341 232.941 337.65 235.328 335.923 238.07C334.298 240.711 333.486 243.504 333.486 246.449C333.486 248.582 333.892 250.512 334.705 252.238C335.619 253.965 337.041 255.488 338.97 256.809C341.002 258.027 343.591 258.992 346.74 259.703C349.99 260.312 353.951 260.617 358.623 260.617C362.888 260.617 367.408 260.363 372.181 259.855C376.955 259.348 381.931 258.84 387.111 258.332C392.291 257.723 397.623 257.164 403.107 256.656C408.693 256.148 414.38 255.895 420.17 255.895C430.935 255.895 440.33 257.164 448.353 259.703C456.478 262.242 463.181 265.797 468.463 270.367C473.744 274.938 477.705 280.32 480.345 286.516C482.986 292.711 484.306 299.465 484.306 306.777C484.306 316.223 482.123 325.008 477.755 333.133C473.388 341.258 466.888 348.316 458.255 354.309C449.623 360.199 438.857 364.82 425.959 368.172C413.162 371.523 398.334 373.199 381.474 373.199C371.115 373.199 361.111 372.539 351.463 371.219C341.814 370 332.623 368.324 323.888 366.191C315.154 363.957 306.927 361.367 299.209 358.422C291.591 355.477 284.634 352.328 278.338 348.977L297.838 314.852Z" fill="white"/>
</g>
<defs>
<clipPath id="clip0_249_2">
<rect width="512" height="512" fill="white"/>
</clipPath>
</defs>
</svg>
